<?xml version="1.0" encoding="utf-8"?>
<!-- Generator: Adobe Illustrator 27.0.0, SVG Export Plug-In . SVG Version: 6.00 Build 0)  -->
<svg version="1.1" id="Layer_1" xmlns="http://www.w3.org/2000/svg" xmlns:xlink="http://www.w3.org/1999/xlink" x="0px" y="0px"
	 viewBox="0 0 1745.17 554.59" style="enable-background:new 0 0 1745.17 554.59;" xml:space="preserve">
<style type="text/css">
	.st0{fill:#62DD76;}
	.st1{fill:#3E8C4F;}
	.st2{fill:#53BC67;}
	.st3{fill:#FFC82E;}
	.st4{fill:#B76D3B;}
	.st5{fill:#FFAF2E;}
	.st6{fill:#06A7E3;}
	.st7{fill:#0094C1;}
	.st8{fill:#06052F;}
	.st9{fill:#FF722D;}
	.st10{fill:#E23C39;}
	.st11{fill:#F45834;}
</style>
<g>
	<polygon class="st0" points="129.52,99.61 220.34,56.88 311.16,99.61 220.34,142.34 	"/>
	<polygon class="st1" points="129.52,222.2 129.52,99.61 220.34,142.34 220.34,264.93 	"/>
	<polygon class="st2" points="220.34,264.93 311.16,222.2 311.16,99.61 220.34,142.34 	"/>
</g>
<g>
	<polygon class="st3" points="220.34,196.62 311.16,153.89 401.98,196.62 311.16,239.36 	"/>
	<polygon class="st4" points="220.34,337.75 220.34,196.62 311.16,239.36 311.16,380.49 	"/>
	<polygon class="st5" points="311.16,454.6 401.98,411.87 401.98,196.62 311.16,239.36 	"/>
</g>
<g>
	<polygon class="st6" points="220.34,255.87 129.52,213.14 38.7,255.87 129.52,298.6 	"/>
	<polygon class="st7" points="220.34,378.46 220.34,255.87 129.52,298.6 129.52,421.19 	"/>
	<polygon class="st8" points="129.52,454.6 38.7,411.87 38.7,255.87 129.52,298.6 	"/>
</g>
<g>
	<polygon class="st9" points="129.52,354.37 220.34,311.64 311.16,354.37 220.34,397.11 	"/>
	<polygon class="st10" points="129.52,454.6 129.52,354.37 220.34,397.11 220.34,497.34 	"/>
	<polygon class="st11" points="220.34,497.34 311.16,454.6 311.16,354.37 220.34,397.11 	"/>
</g>
<g>
	<path d="M485.7,157.85h46.78l45.92,70.15l46.02-70.15h46.73l-69.32,105.93l73.68,112.55h-46.79l-50.29-76.81l-50.27,76.81h-47.08
		l73.89-112.64L485.7,157.85z"/>
	<path d="M855.4,307.26H725.15c1.88,11.49,6.91,20.62,15.08,27.4c8.17,6.78,18.59,10.17,31.26,10.17c15.15,0,28.17-5.3,39.06-15.89
		l34.16,16.04c-8.52,12.08-18.71,21.02-30.6,26.81c-11.88,5.79-25.99,8.69-42.33,8.69c-25.35,0-45.99-8-61.94-23.99
		c-15.94-15.99-23.91-36.02-23.91-60.08c0-24.66,7.95-45.13,23.84-61.42c15.89-16.29,35.82-24.43,59.78-24.43
		c25.45,0,46.14,8.15,62.08,24.43c15.94,16.29,23.91,37.8,23.91,64.53L855.4,307.26z M814.86,275.33
		c-2.68-9.01-7.96-16.34-15.85-21.98c-7.89-5.64-17.03-8.47-27.45-8.47c-11.31,0-21.23,3.17-29.75,9.5
		c-5.36,3.96-10.32,10.94-14.88,20.94H814.86z"/>
	<path d="M888.23,214.73h40.55v16.56c9.19-7.75,17.52-13.14,24.99-16.17c7.46-3.03,15.1-4.55,22.92-4.55
		c16.02,0,29.61,5.59,40.79,16.78c9.39,9.51,14.09,23.57,14.09,42.18v106.79h-40.1v-70.77c0-19.29-0.87-32.09-2.59-38.42
		c-1.73-6.33-4.74-11.15-9.04-14.46c-4.3-3.31-9.61-4.97-15.93-4.97c-8.2,0-15.24,2.75-21.11,8.23
		c-5.88,5.49-9.95,13.08-12.23,22.77c-1.19,5.05-1.78,15.97-1.78,32.79v64.83h-40.55V214.73z"/>
	<path d="M1063.82,376.33V157.85h34.35c19.92,0,34.5,1.29,43.72,3.86c13.09,3.47,23.5,9.9,31.23,19.31
		c7.73,9.41,11.6,20.5,11.6,33.27c0,8.32-1.76,15.87-5.27,22.65c-3.52,6.78-9.23,13.14-17.15,19.08
		c13.27,6.24,22.97,14.04,29.11,23.39c6.14,9.36,9.21,20.42,9.21,33.2c0,12.28-3.17,23.47-9.52,33.57s-14.52,17.65-24.53,22.65
		c-10.01,5-23.84,7.5-41.48,7.5H1063.82z M1105.41,197.5v46.04h9.09c10.14,0,17.67-2.13,22.59-6.39c4.92-4.26,7.38-10.05,7.38-17.38
		c0-6.83-2.34-12.25-7.01-16.26c-4.67-4.01-11.78-6.02-21.32-6.02H1105.41z M1105.41,280.68v55.99h10.42
		c17.28,0,28.92-2.18,34.92-6.54c6.01-4.36,9.01-10.69,9.01-19.01c0-9.41-3.53-16.83-10.58-22.28c-7.05-5.44-18.77-8.17-35.15-8.17
		H1105.41z"/>
	<path d="M1224.36,214.73h40.99v77.83c0,15.15,1.04,25.67,3.13,31.56c2.08,5.89,5.44,10.47,10.05,13.74
		c4.61,3.27,10.3,4.9,17.05,4.9c6.75,0,12.48-1.61,17.2-4.83c4.72-3.22,8.21-7.95,10.5-14.18c1.69-4.65,2.53-14.6,2.53-29.85v-79.16
		h40.55v68.47c0,28.22-2.23,47.53-6.68,57.92c-5.45,12.68-13.47,22.4-24.06,29.18c-10.6,6.78-24.06,10.17-40.4,10.17
		c-17.73,0-32.06-3.96-43-11.88c-10.94-7.92-18.64-18.96-23.1-33.12c-3.17-9.8-4.75-27.62-4.75-53.47V214.73z"/>
	<path d="M1415.87,148.19c7.11,0,13.21,2.58,18.29,7.72c5.08,5.15,7.63,11.39,7.63,18.71c0,7.23-2.52,13.39-7.55,18.49
		c-5.04,5.1-11.06,7.65-18.07,7.65c-7.21,0-13.36-2.6-18.44-7.8c-5.08-5.2-7.63-11.51-7.63-18.94c0-7.13,2.52-13.22,7.55-18.27
		S1408.76,148.19,1415.87,148.19z M1395.6,214.73h40.55v161.6h-40.55V214.73z"/>
	<path d="M1468.52,152.35h40.55v223.98h-40.55V152.35z"/>
	<path d="M1665.17,152.35h40.55v223.98h-40.55v-17.08c-7.91,7.53-15.85,12.95-23.81,16.26c-7.96,3.32-16.59,4.98-25.89,4.98
		c-20.87,0-38.92-8.09-54.15-24.28c-15.23-16.19-22.84-36.31-22.84-60.38c0-24.95,7.37-45.4,22.1-61.34
		c14.74-15.94,32.64-23.91,53.7-23.91c9.69,0,18.79,1.83,27.29,5.5c8.51,3.67,16.37,9.16,23.59,16.49V152.35z M1622.55,248
		c-12.53,0-22.94,4.43-31.23,13.29c-8.29,8.86-12.43,20.22-12.43,34.09c0,13.96,4.22,25.45,12.66,34.46
		c8.44,9.01,18.82,13.52,31.16,13.52c12.73,0,23.29-4.43,31.68-13.29c8.39-8.86,12.58-20.47,12.58-34.83
		c0-14.06-4.2-25.45-12.58-34.16C1645.98,252.36,1635.37,248,1622.55,248z"/>
</g>
</svg>
